<svg xmlns="http://www.w3.org/2000/svg" width="48" height="48" viewBox="0 0 48 48">
    <g fill="none" fill-rule="evenodd" stroke="#1E1E1E">
        <circle cx="24" cy="24" r="23.5" fill="#FFF"/>
        <g fill="#1E1E1E" stroke-width=".4">
            <path d="M11.765 13.29c-.567 0-1.028.46-1.028 1.027v6.48c0 .565.46 1.026 1.028 1.026h24.417c.566 0 1.027-.46 1.027-1.027v-6.479c0-.566-.46-1.027-1.027-1.027H11.765zm24.417 9.567H11.765a2.065 2.065 0 0 1-2.063-2.06v-6.48c0-1.136.926-2.061 2.063-2.061h24.417c1.136 0 2.061.925 2.061 2.061v6.48c0 1.135-.925 2.06-2.06 2.06z"/>
            <path d="M34.113 20.797H13.745a.517.517 0 1 1 0-1.035h20.368a.517.517 0 0 1 0 1.035M28.715 31.206a1.98 1.98 0 0 1-1.978-1.979v-4.523a.517.517 0 1 1 1.034 0v4.523a.945.945 0 0 0 1.889 0 .517.517 0 1 1 1.033 0 1.98 1.98 0 0 1-1.978 1.98M18.366 35.382a1.827 1.827 0 0 1-1.825-1.825.516.516 0 1 1 1.035 0 .791.791 0 0 0 1.58 0v-8.853a.516.516 0 1 1 1.035 0v8.853c0 1.006-.819 1.825-1.825 1.825M26.338 40.62c-1.93 0-3.443-1.494-3.443-3.4V24.704a.518.518 0 0 1 1.034 0V37.22c0 1.326 1.058 2.365 2.41 2.365 1.328 0 2.409-1.128 2.409-2.514 0-1.402-1.109-2.587-2.419-2.587a.518.518 0 0 1 0-1.034c1.872 0 3.453 1.658 3.453 3.621 0 1.957-1.545 3.548-3.444 3.548"/>
        </g>
    </g>
</svg>
