<svg xmlns="http://www.w3.org/2000/svg" width="48" height="48" viewBox="0 0 48 48">
    <g fill="none" fill-rule="evenodd" stroke="#1E1E1E">
        <circle cx="24" cy="24" r="23.5" fill="#FFF"/>
        <path fill="#1E1E1E" stroke-width=".3" d="M15.332 36.185h8.441V12.269h-8.44v23.916zm8.958 1.035h-9.474a.518.518 0 0 1-.518-.518v-24.95c0-.286.232-.518.518-.518h9.474c.286 0 .518.232.518.518v24.95a.518.518 0 0 1-.518.518z"/>
        <path fill="#1E1E1E" stroke-width=".3" d="M24.808 36.185h8.44V12.269h-8.44v23.916zm8.957 1.035H24.29a.518.518 0 0 1-.517-.518v-24.95c0-.286.232-.518.517-.518h9.475c.287 0 .518.232.518.518v24.95c0 .286-.23.518-.518.518z"/>
        <path stroke-width="1.2" d="M19.988 25.268h-.816a.774.774 0 0 1-.774-.774v-4.307c0-.428.346-.774.774-.774h.816c.428 0 .774.346.774.774v4.307a.774.774 0 0 1-.774.774zM29.527 25.268h-.998a.773.773 0 0 1-.773-.774v-4.307c0-.428.347-.774.773-.774h.998c.428 0 .774.346.774.774v4.307a.774.774 0 0 1-.774.774z"/>
    </g>
</svg>
