<svg xmlns="http://www.w3.org/2000/svg" width="48" height="48" viewBox="0 0 48 48">
    <g fill="none" fill-rule="evenodd" stroke="#1E1E1E">
        <circle cx="24" cy="24" r="23.5" fill="#FFF"/>
        <path fill="#1E1E1E" stroke-width=".4" d="M15.641 20.185c.342 1.797.143 3.747-.05 5.645-.395 3.855-.767 7.497 3.074 9.882 2.738 1.391 3.71 1.545 6.346 1.545 4.49 0 8.12-2.905 8.631-6.907.229-1.793-.367-3.558-.944-5.264-.877-2.597-1.782-5.275.157-8.057-2.276.898-3.715 4.156-4.227 6.09a.516.516 0 0 1-.954.108c-1.194-2.296-1.766-6.2-1.795-12.266-3.092 2.2-3.63 6.8-4.066 10.524-.265 2.273-.495 4.236-1.24 5.378a.52.52 0 0 1-.255.202.558.558 0 0 1-.432-.018.535.535 0 0 1-.282-.313c-.418-1.505-2.733-4.893-3.963-6.55m9.37 18.114c-2.793 0-3.96-.209-6.847-1.679-4.43-2.749-4.008-6.89-3.599-10.896.237-2.319.46-4.508-.219-6.394a.773.773 0 0 1 .091-.713.789.789 0 0 1 1.095-.185c.458.347 3.382 4.376 4.604 6.883.313-1.03.48-2.46.655-3.951.48-4.1 1.077-9.203 4.946-11.55a.766.766 0 0 1 .397-.11.78.78 0 0 1 .775.78c0 5.07.381 8.701 1.162 11.026.729-1.924 2.382-5.203 5.327-5.699a.77.77 0 0 1 .83.447.778.778 0 0 1-.117.834c-2.163 2.55-1.364 4.918-.437 7.659.614 1.82 1.249 3.7.99 5.733-.577 4.529-4.638 7.815-9.653 7.815"/>
    </g>
</svg>
