<svg xmlns="http://www.w3.org/2000/svg" width="48" height="48" viewBox="0 0 48 48">
    <g fill="none" fill-rule="evenodd" stroke="#1E1E1E">
        <circle cx="24" cy="24" r="23.5" fill="#FFF"/>
        <g fill="#1E1E1E" stroke-width=".3">
            <path d="M19.922 26.717a.518.518 0 0 1-.518-.517v-4.747a.517.517 0 0 1 1.035 0V26.2a.517.517 0 0 1-.517.517M24.64 31.673h-4.719a.517.517 0 0 1 0-1.035h4.72a.518.518 0 0 1 0 1.035M16.16 29.63c-.739 0-1.34.628-1.34 1.401s.601 1.402 1.34 1.402c.74 0 1.34-.63 1.34-1.402 0-.773-.6-1.4-1.34-1.4m0 3.835c-1.308 0-2.373-1.092-2.373-2.435 0-1.342 1.065-2.435 2.374-2.435 1.307 0 2.372 1.093 2.372 2.435 0 1.343-1.065 2.435-2.372 2.435M28.416 29.63c-.738 0-1.339.628-1.339 1.401s.6 1.402 1.339 1.402c.738 0 1.339-.63 1.339-1.402 0-.773-.6-1.4-1.339-1.4m0 3.835c-1.308 0-2.373-1.092-2.373-2.435 0-1.342 1.065-2.435 2.373-2.435 1.308 0 2.373 1.093 2.373 2.435 0 1.343-1.065 2.435-2.373 2.435"/>
            <path d="M32.835 31.497h-.826a.516.516 0 0 1-.516-.517c0-.286.23-.518.516-.518h.285c-.288-3.517-2.835-3.636-4.386-3.708-.15-.007-.288-.013-.41-.023-.615-.046-.75-.582-.801-.783-.286-1.146-1.394-3.825-5.49-3.977a67.668 67.668 0 0 0-1.206.004c-4.787.145-5.52 2.806-5.612 3.943-.035.414-.331.761-.754.885-1.49.432-1.799 2.647-1.862 3.66h.134c.286 0 .519.231.519.517a.518.518 0 0 1-.52.517h-.666a.515.515 0 0 1-.516-.505c-.004-.18-.074-4.4 2.623-5.183.101-1.08.845-4.693 6.62-4.868.107-.002 1.14-.007 1.278-.003 4.932.183 6.188 3.689 6.456 4.758l.003.012c.079.005.162.008.252.012 1.59.075 5.314.249 5.396 5.25a.52.52 0 0 1-.517.527"/>
            <path d="M27.662 27.077H13.793a.517.517 0 0 1 0-1.034h13.87a.518.518 0 0 1 0 1.034M38.849 21.361a.516.516 0 0 1-.337-.124L25.288 9.88l-9.626 8.266a.517.517 0 1 1-.674-.785l9.964-8.555a.516.516 0 0 1 .673 0l13.56 11.645a.517.517 0 0 1-.336.91"/>
            <path d="M35.877 36.588H11.241a.518.518 0 0 1 0-1.034h24.12V18.9a.517.517 0 0 1 1.034 0V36.07a.518.518 0 0 1-.518.517M34.797 17.763a.517.517 0 0 1-.517-.517v-7.02h-4.65v2.2a.517.517 0 0 1-1.034 0V9.708c0-.285.23-.517.517-.517h5.684c.286 0 .518.232.518.517v7.538a.518.518 0 0 1-.518.517"/>
        </g>
    </g>
</svg>
