<svg xmlns="http://www.w3.org/2000/svg" width="48" height="48" viewBox="0 0 48 48">
    <g fill="none" fill-rule="evenodd" stroke="#1E1E1E">
        <circle cx="24" cy="24" r="23.5" fill="#FFF"/>
        <path fill="#1E1E1E" stroke-width=".3" d="M33.478 19.957a.818.818 0 0 0-.58.237.794.794 0 0 0 0 1.131c.31.307.851.306 1.159 0a.79.79 0 0 0 .237-.566.79.79 0 0 0-.237-.565.815.815 0 0 0-.58-.237m0 2.64a1.847 1.847 0 0 1-1.849-1.838c0-.49.192-.953.543-1.3.699-.692 1.915-.69 2.613 0 .351.347.544.81.544 1.3a1.845 1.845 0 0 1-1.85 1.837"/>
        <path fill="#1E1E1E" stroke-width=".3" d="M12.442 17.07c-.924 0-1.705.694-1.705 1.515v14.627c0 .897.844 1.776 1.705 1.776H35.58c.845 0 1.644-.863 1.644-1.776V18.585c0-.85-.722-1.514-1.644-1.514H12.442zM35.58 36.023H12.442c-1.434 0-2.74-1.34-2.74-2.81V18.585c0-1.405 1.23-2.549 2.74-2.549H35.58c1.476 0 2.677 1.144 2.677 2.55v14.626c0 1.497-1.251 2.81-2.677 2.81z"/>
        <path fill="#1E1E1E" stroke-width=".3" d="M23.836 17.07a.516.516 0 0 1-.411-.203l-4.726-6.223a.516.516 0 1 1 .824-.625l4.313 5.68 4.314-5.68a.516.516 0 1 1 .823.625l-4.725 6.223a.516.516 0 0 1-.412.204"/>
        <path fill="#1E1E1E" stroke-width=".3" d="M29.282 8.694c-.364 0-.661.31-.661.69 0 .38.297.689.661.689.365 0 .662-.31.662-.69 0-.38-.297-.69-.662-.69m0 2.414c-.935 0-1.696-.773-1.696-1.724 0-.95.76-1.724 1.696-1.724.936 0 1.697.773 1.697 1.724s-.761 1.724-1.697 1.724M18.39 8.694c-.364 0-.661.31-.661.69 0 .38.297.689.661.689.365 0 .662-.31.662-.69 0-.38-.297-.69-.662-.69m0 2.414c-.935 0-1.696-.773-1.696-1.724 0-.95.76-1.724 1.696-1.724.936 0 1.697.773 1.697 1.724s-.761 1.724-1.697 1.724M15.02 19.957a1.38 1.38 0 0 0-1.377 1.377v9.477a1.38 1.38 0 0 0 1.377 1.378h13.267a1.38 1.38 0 0 0 1.378-1.378v-9.477a1.38 1.38 0 0 0-1.378-1.377H15.02zm13.267 13.266H15.02a2.416 2.416 0 0 1-2.412-2.412v-9.477a2.416 2.416 0 0 1 2.412-2.412h13.267a2.415 2.415 0 0 1 2.411 2.412v9.477a2.415 2.415 0 0 1-2.411 2.412z"/>
    </g>
</svg>
