<svg xmlns="http://www.w3.org/2000/svg" width="48" height="48" viewBox="0 0 48 48">
    <g fill="none" fill-rule="evenodd" stroke="#1E1E1E">
        <circle cx="24" cy="24" r="23.5" fill="#FFF"/>
        <path fill="#1E1E1E" stroke-width=".3" d="M13.714 15.446h19.631v-2.93a.847.847 0 0 0-.845-.845H14.56a.847.847 0 0 0-.846.846v2.929zm20.578.948H12.766v-3.877c0-.989.804-1.794 1.794-1.794H32.5c.988 0 1.792.805 1.792 1.794v3.877zM23.53 21.047a5.689 5.689 0 0 0-5.682 5.682 5.688 5.688 0 0 0 5.682 5.682 5.689 5.689 0 0 0 5.683-5.682 5.69 5.69 0 0 0-5.683-5.682zm0 12.311a6.638 6.638 0 0 1-6.63-6.629 6.638 6.638 0 0 1 6.63-6.63 6.637 6.637 0 0 1 6.63 6.63 6.637 6.637 0 0 1-6.63 6.63zm-9.815-14.986v16.604c0 .466.379.846.845.846H32.5c.465 0 .845-.38.845-.846V18.372h-19.63zM32.499 36.77H14.56c-.99 0-1.793-.804-1.793-1.793V17.424h21.525v17.552c0 .989-.803 1.793-1.793 1.793z"/>
        <path fill="#1E1E1E" stroke-width=".3" d="M22.128 29.12a.219.219 0 0 0 .31 0l4.398-4.397a.22.22 0 1 0-.31-.311l-4.398 4.397a.22.22 0 0 0 0 .31M20.085 29.184a.217.217 0 0 0 .155-.064l4.398-4.398a.22.22 0 0 0 0-.31.222.222 0 0 0-.312 0l-4.396 4.397a.22.22 0 0 0 .155.375M19.65 14.575h-3.899a.616.616 0 0 1 0-1.231h3.9a.615.615 0 1 1 0 1.23M25.403 14.825a.866.866 0 1 1 0-1.732.866.866 0 0 1 0 1.732M28.041 14.825a.866.866 0 1 1 0-1.732.866.866 0 0 1 0 1.732M30.68 14.825a.865.865 0 1 1 0-1.732.866.866 0 0 1 0 1.732"/>
    </g>
</svg>
