<svg xmlns="http://www.w3.org/2000/svg" width="48" height="48" viewBox="0 0 48 48">
    <g fill="none" fill-rule="evenodd">
        <circle cx="24" cy="24" r="23.5" fill="#FFF" stroke="#1E1E1E"/>
        <g fill="#1E1E1E">
            <path stroke="#1E1E1E" stroke-width=".567" d="M25.624 32.295c0-.916-.744-1.66-1.66-1.66a1.66 1.66 0 0 0 0 3.319 1.66 1.66 0 0 0 1.66-1.66m-4.525 0a2.87 2.87 0 0 1 2.866-2.867 2.87 2.87 0 0 1 2.867 2.868 2.87 2.87 0 0 1-2.867 2.866 2.87 2.87 0 0 1-2.866-2.866"/>
            <path stroke="#1E1E1E" stroke-width=".851" d="M14.199 22.709c2.566-2.778 6.035-4.307 9.767-4.307 3.732 0 7.2 1.53 9.767 4.307a.591.591 0 0 1-.028.827.572.572 0 0 1-.817-.027c-2.345-2.538-5.513-3.936-8.922-3.936-3.41 0-6.579 1.398-8.924 3.936a.572.572 0 0 1-.817.027.587.587 0 0 1-.026-.827z"/>
            <path d="M9.42 18.247c3.765-4.167 8.852-6.46 14.326-6.46 5.473 0 10.56 2.293 14.324 6.46a.902.902 0 0 1-.04 1.24.826.826 0 0 1-1.198-.04c-3.44-3.807-8.087-5.904-13.086-5.904-5 0-9.65 2.097-13.088 5.904a.826.826 0 0 1-1.199.04.89.89 0 0 1-.268-.64.89.89 0 0 1 .23-.6z"/>
            <path stroke="#1E1E1E" stroke-width=".851" d="M18.453 26.613c0-.143.047-.286.147-.402 1.358-1.599 3.315-2.517 5.365-2.517 2.052 0 4.007.918 5.366 2.517a.622.622 0 0 1-.055.86.578.578 0 0 1-.833-.056c-1.135-1.335-2.767-2.102-4.478-2.102-1.711 0-3.343.767-4.478 2.102a.578.578 0 0 1-.833.057.615.615 0 0 1-.201-.459"/>
        </g>
    </g>
</svg>
