<svg xmlns="http://www.w3.org/2000/svg" width="48" height="48" viewBox="0 0 48 48">
    <g fill="none" fill-rule="evenodd" stroke="#1E1E1E">
        <circle cx="24" cy="24" r="23.5"/>
        <g fill="#1E1E1E" stroke-width=".5">
            <path d="M27.505 22.368a.39.39 0 0 1-.387-.391v-3.425c0-.204-.147-.358-.236-.43-.274-.228-.692-.318-1.09-.238-1.478.299-3.06.285-4.706-.042-.382-.076-.736-.006-.971.187a.609.609 0 0 0-.233.474v3.474a.388.388 0 0 1-.386.391.39.39 0 0 1-.388-.391v-3.474c0-.42.184-.801.516-1.078.413-.344 1-.473 1.611-.351 1.546.307 3.027.322 4.404.043.63-.128 1.278.022 1.733.4.336.277.52.645.52 1.035v3.425a.388.388 0 0 1-.387.391z"/>
            <path d="M13.037 26.246H33.54c-.14-2.033-2.093-3.71-4.392-3.71h-11.72c-2.297 0-4.251 1.677-4.39 3.71m20.896.783h-21.29a.39.39 0 0 1-.388-.391v-.16c0-2.56 2.37-4.724 5.173-4.724h11.719c2.804 0 5.173 2.163 5.173 4.724v.16a.389.389 0 0 1-.387.39"/>
            <path d="M13.03 31.638h20.516v-4.61H13.03v4.61zm20.903.782h-21.29a.389.389 0 0 1-.387-.391v-5.392c0-.216.173-.39.387-.39h21.29c.214 0 .387.174.387.39v5.392a.389.389 0 0 1-.387.391z"/>
            <path d="M33.58 34.727a.39.39 0 0 1-.389-.392v-2.584a.39.39 0 0 1 .388-.39c.214 0 .387.174.387.39v2.584a.389.389 0 0 1-.387.392M13.154 34.727a.39.39 0 0 1-.388-.392v-2.584a.39.39 0 0 1 .388-.39c.213 0 .386.174.386.39v2.584a.389.389 0 0 1-.386.392M31.73 23.244a.39.39 0 0 1-.386-.391V13.55H15.232v9.303a.39.39 0 0 1-.387.391.39.39 0 0 1-.387-.391v-9.695a.39.39 0 0 1 .387-.392h16.886a.39.39 0 0 1 .387.392v9.695a.39.39 0 0 1-.387.391"/>
        </g>
    </g>
</svg>
