<svg xmlns="http://www.w3.org/2000/svg" width="48" height="48" viewBox="0 0 48 48">
    <g fill="none" fill-rule="evenodd">
        <circle cx="24" cy="24" r="23.5" fill="#FFF" stroke="#1E1E1E"/>
        <path fill="#1E1E1E" stroke="#1E1E1E" stroke-width=".5" d="M36.978 23.063v-4.088c0-2.857-2.194-5.181-4.89-5.181H14.721c-2.697 0-4.89 2.324-4.89 5.18v4.089c-1.239.269-2.172 1.433-2.172 2.825v3.448c0 .319.243.576.543.576h.542v4.605h1.086V31.64h27.147v2.878h1.085v-4.604h.543c.3 0 .543-.258.543-.577v-3.448c0-1.392-.934-2.556-2.171-2.825z"/>
        <path fill="#FFF" d="M10.917 18.975c0-2.222 1.707-4.03 3.805-4.03h17.365c2.098 0 3.805 1.808 3.805 4.03v4.03h-2.715V19.55a.577.577 0 0 0-.341-.534c-.115-.049-2.828-1.193-4.274-1.193-1.445 0-4.159 1.144-4.273 1.193a.577.577 0 0 0-.342.534v3.454h-1.085V19.55a.577.577 0 0 0-.342-.534c-.114-.049-2.828-1.193-4.273-1.193-1.446 0-4.16 1.144-4.274 1.193a.577.577 0 0 0-.341.534v3.454h-2.715v-4.03z"/>
        <g fill="#FFF" stroke="#1E1E1E" stroke-width=".5">
            <path d="M32.091 23.004h-7.058v-3.059c.909-.36 2.633-.97 3.53-.97.894 0 2.619.61 3.528.97v3.06zM21.776 23.004h-7.058v-3.059c.908-.36 2.632-.97 3.529-.97.895 0 2.62.61 3.529.97v3.06z"/>
        </g>
        <path fill="#FFF" d="M9.831 29.912h27.146v1H9.831zM38.063 28.76H8.745v-2.872c0-.955.732-1.732 1.632-1.732h26.055c.9 0 1.631.777 1.631 1.732v2.873z"/>
    </g>
</svg>
